<svg xmlns="http://www.w3.org/2000/svg">
  <symbol id="save-icon" viewBox="0 0 21 21" fill="none">
    <path fill="#000" d="M0 0h1.615v21H0V0Zm1.615 0h17.77v1.615H1.615V0Zm17.77 1.615H21v19.385h-1.615V1.615ZM1.615 19.385h19.385V21H1.615v-1.615ZM3.231 1.615h12.923v4.846H3.231V1.615Zm1.615 1.615v1.616h1.615V3.231H4.846Zm3.231 0v1.616h1.615V3.231H8.077Zm3.23 0v1.616h1.616V3.231h-1.615Zm3.23 0v1.616h1.616V3.231h-1.615ZM3.231 6.462h14.538v1.615H3.231V6.462Zm1.615 4.846h12.923v1.615H4.846v-1.615Zm0 1.615h1.615v1.615H4.846v-1.615Zm11.308 0h1.615v1.615h-1.615v-1.615Zm-11.308 3.231h1.615v1.615H4.846v-1.615Zm11.308 0h1.615v1.615h-1.615v-1.615Z"/>
  </symbol>
</svg>